<svg version="1.0" xmlns="http://www.w3.org/2000/svg" width="800.000000" height="800.000000" viewBox="0 0 800.000000 800.000000" preserveAspectRatio="xMidYMid meet">
  <metadata>
    <rdf:RDF xmlns:rdf="http://www.w3.org/1999/02/22-rdf-syntax-ns#" xmlns:rdfs="http://www.w3.org/2000/01/rdf-schema#" xmlns:dc="http://purl.org/dc/elements/1.1/">
      <rdf:Description dc:format="image/svg+xml" dc:Label="1" dc:ContentProducer="001191330110MACRLGPT8B00000" dc:ProduceID="448071378" dc:ReservedCode1="04/+Evh7bn0d7/zc4jKZhtX1z9EatnY4mFAVRcOp0pg=" dc:ContentPropagator="001191330110MACRLGPT8B00000" dc:PropagateID="448071378" dc:ReservedCode2="04/+Evh7bn0d7/zc4jKZhtX1z9EatnY4mFAVRcOp0pg="/>
    </rdf:RDF>
  </metadata>
  <g transform="translate(38.945287,772.874381) scale(0.091540,-0.091540)" fill="#000000" stroke="none">
    <path d="M2000 6066 c-85 -18 -149 -54 -216 -120 -67 -67 -108 -143 -124 -225 -6 -35 -10 -577 -10 -1540 0 -1600 -1 -1551 51 -1653 28 -54 113 -143 167 -175 23 -14 70 -34 103 -44 57 -18 102 -19 681 -19 l620 0 37 -29 c325 -256 889 -259 1225 -6 l59 44 642 1 c491 0 654 3 692 13 114 30 214 116 272 237 l36 75 3 1530 c2 1020 -1 1546 -8 1578 -27 129 -118 240 -246 304 l-78 38 -730 0 c-828 0 -785 4 -966 -83 -82 -39 -108 -58 -185 -136 l-91 -91 -74 75 c-122 124 -287 205 -463 229 -113 16 -1324 13 -1397 -3z m1430 -290 c175 -58 283 -160 344 -325 21 -56 21 -68 24 -1573 2 -1469 2 -1518 -16 -1518 -75 0 -238 78 -318 152 l-61 57 -680 3 -680 3 -36 28 c-79 60 -72 -86 -72 1582 l0 1490 23 36 c42 68 58 73 237 79 88 3 390 5 670 5 466 0 515 -2 565 -19z m2444 1 c25 -14 48 -39 63 -66 l23 -45 -2 -1492 c-3 -1490 -3 -1493 -24 -1520 -11 -15 -33 -37 -48 -48 -27 -21 -40 -21 -735 -26 l-707 -5 -34 -38 c-38 -44 -127 -107 -186 -132 -41 -18 -124 -45 -136 -45 -5 0 -8 679 -8 1508 0 1660 -4 1561 62 1683 60 114 205 216 338 238 30 5 348 9 705 10 l650 1 39 -23z"/>
  </g>
</svg>